# AST/ASF file generated using VICON BodyLanguage
# -----------------------------------------------
:version 1.10
:name VICON
:units
  mass 1.0
  length 0.45
  angle deg
:documentation
   .ast/.asf automatically generated from VICON data using
   VICON BodyBuilder and BodyLanguage model FoxedUp or BRILLIANT.MOD
:root
   order TX TY TZ RX RY RZ
   axis XYZ
   position 0 0 0  
   orientation 0 0 0 
:bonedata
  begin
     id 1 
     name lhipjoint
     direction 0.643824 -0.71708 0.266994 
     length 2.52133 
     axis 0 0 0  XYZ
  end
  begin
     id 2 
     name lfemur
     direction 0.34202 -0.939693 0  
     length 7.51824  
     axis 0 0 20  XYZ
    dof rx ry rz
    limits (-160.0 20.0)
           (-70.0 70.0)
           (-60.0 70.0)
  end
  begin
     id 3 
     name ltibia
     direction 0.34202 -0.939693 0   
     length 7.3685   
     axis 0 0 20   XYZ
    dof rx
    limits (-10.0 170.0)
  end
  begin
     id 4 
     name lfoot
     direction 0.105419 -0.289636 0.951314   
     length 2.20972   
     axis -90 7.62852e-016 20   XYZ
    dof rx rz
    limits (-45.0 90.0)
           (-70.0 20.0)
  end
  begin
     id 5 
     name ltoes
     direction 1.53549e-011 -4.21833e-011 1   
     length 1.10139   
     axis -90 7.62852e-016 20   XYZ
    dof rx
    limits (-90.0 20.0)
  end
  begin
     id 6 
     name rhipjoint
     direction -0.608823 -0.743445 0.276811   
     length 2.43192  
     axis 0 0 0  XYZ 
  end
  begin
     id 7 
     name rfemur
     direction -0.34202 -0.939693 0   
     length 7.69715   
     axis 0 0 -20   XYZ
    dof rx ry rz
    limits (-160.0 20.0)
           (-70.0 70.0)
           (-70.0 60.0)
  end
  begin
     id 8 
     name rtibia
     direction -0.34202 -0.939693 0   
     length 7.44924   
     axis 0 0 -20   XYZ
    dof rx
    limits (-10.0 170.0)
 end
 begin
     id 9 
     name rfoot
     direction -0.103614 -0.284677 0.953007   
     length 2.22623  
     axis -90 -7.62852e-016 -20   XYZ
    dof rx rz
    limits (-45.0 90.0)
           (-20.0 70.0)
  end
  begin
     id 10 
     name rtoes
     direction -1.53537e-011 -4.22026e-011 1   
     length 1.11   
     axis -90 -7.62852e-016 -20   XYZ
    dof rx
    limits (-90.0 20.0)
  end
  begin
     id 11 
     name lowerback
     direction -0.0101212 0.99662 -0.0815298   
     length 2.08277   
     axis 0 0 0   XYZ
    dof rx ry rz
    limits (-20.0 45.0)
           (-30.0 30.0)
           (-30.0 30.0)
  end
  begin
     id 12 
     name upperback
     direction 0.024314 0.999591 -0.0150645   
     length 2.08524   
     axis 0 0 0   XYZ
    dof rx ry rz
    limits (-20.0 45.0)
           (-30.0 30.0)
           (-30.0 30.0)
  end
  begin
     id 13 
     name thorax
     direction 0.0285959 0.999323 0.0231357   
     length 2.09645   
     axis 0 0 0   XYZ
    dof rx ry rz
    limits (-20.0 45.0)
           (-30.0 30.0)
           (-30.0 30.0)
  end
  begin
     id 14 
     name lowerneck
     direction -0.065512 0.979301 0.191515   
     length 1.63798   
     axis 0 0 0   XYZ
    dof rx ry rz
    limits (-20.0 45.0)
           (-30.0 30.0)
           (-30.0 30.0)
  end
  begin
     id 15 
     name upperneck
     direction 0.0498479 0.98191 -0.182667   
     length 1.68731   
     axis 0 0 0   XYZ
    dof rx ry rz
    limits (-20.0 45.0)
           (-30.0 30.0)
           (-30.0 30.0)
  end
  begin
     id 16
     name head
     direction 0.0230358 0.996257 -0.0833175  
     length 1.69785  
     axis 0 0 0   XYZ
    dof rx ry rz
    limits (-20.0 45.0)
           (-30.0 30.0)
           (-30.0 30.0)
  end
  begin
     id 17 
     name lclavicle
     direction 0.967963 0.201165 -0.150269  
     length 3.63976  
     axis 0 0 0   XYZ
    dof ry rz
    limits (-20.0 10.0)
           (0.0 20.0)
  end
  begin
     id 18 
     name lhumerus
     direction 1 -4.48954e-011 -2.92837e-028   
     length 5.32462   
     axis 180 -30 -90   XYZ
    dof rx ry rz
    limits (-60.0 90.0)
           (-90.0 90.0)
           (-90.0 90.0)
  end
  begin
     id 19
     name lradius
     direction 1 -4.48958e-011 -6.39511e-027   
     length 3.48402   
     axis 180 -30 -90   XYZ
    dof rx
    limits (-10.0 170.0)
  end
  begin
     id 20
     name lwrist
     direction 1 -4.48975e-011 -1.1413e-026   
     length 1.74201   
     axis 6.88575e-015 90 90   XYZ
    dof ry
    limits (-180.0 0.0)
 end
  begin
     id 21 
     name lhand
     direction 1 -4.48899e-011 -2.28192e-026   
     length 0.572476   
     axis 1.45643e-014 90 90   XYZ
    dof rx rz
    limits (-90.0 90.0)
           (-45.0 45.0)
  end
  begin
     id 22 
     name lfingers
     direction 1 -4.49155e-011 -4.5684e-026   
     length 0.461545   
     axis 2.91283e-014 90 90   XYZ
    dof rx
    limits (0.0 90.0)
  end
  begin
     id 23
     name lthumb
     direction 0.707107 -6.34943e-011 0.707107   
     length 0.662688   
     axis -90 45 -2.25915e-014   XYZ
    dof rx rz
    limits (-45.0 45.0)
           (-45.0 45.0)
  end
  begin
     id 24 
     name rclavicle
     direction -0.964103 0.264019 -0.0282629   
     length 3.54491  
     axis 0 0 0   XYZ 
    dof ry rz
    limits (-10.0 20.0)
           (-20.0 0.0)
  end
  begin
     id 25 
     name rhumerus
     direction -1 -4.48964e-011 -2.45032e-027  
     length 5.33589   
     axis 180 30 90   XYZ
    dof rx ry rz
    limits (-90.0 60.0)
           (-90.0 90.0)
           (-90.0 90.0)
  end
  begin
     id 26 
     name rradius
     direction -1 -4.48987e-011 -1.55093e-027   
     length 3.64134   
     axis 180 30 90   XYZ
    dof rx
    limits (-10.0 170.0)
  end
  begin
     id 27 
     name rwrist
     direction -1 -4.4897e-011 -1.14128e-026   
     length 1.82067   
     axis 6.88575e-015 -90 -90   XYZ
    dof ry
    limits (-180.0 0.0)
  end
  begin
     id 28
     name rhand
     direction -1 -4.49021e-011 -2.28301e-026   
     length 0.734811   
     axis 1.45643e-014 -90 -90   XYZ
    dof rx rz
    limits (-90.0 90.0)
           (-45.0 45.0)
  end
  begin
     id 29
     name rfingers
     direction -1 -4.48862e-011 -4.56319e-026   
     length 0.592424   
     axis 2.91283e-014 -90 -90   XYZ
    dof rx
    limits (0.0 90.0)
  end
  begin
     id 30
     name rthumb
     direction -0.707107 -6.34978e-011 0.707107   
     length 0.850605   
     axis -90 -45 2.25915e-014   XYZ
    dof rx rz
    limits (-45.0 45.0)
           (-45.0 45.0)
  end
:hierarchy
  begin
    root lhipjoint rhipjoint lowerback
    lhipjoint lfemur
    lfemur ltibia
    ltibia lfoot
    lfoot ltoes
    rhipjoint rfemur
    rfemur rtibia
    rtibia rfoot
    rfoot rtoes
    lowerback upperback
    upperback thorax
    thorax lowerneck lclavicle rclavicle
    lowerneck upperneck
    upperneck head
    lclavicle lhumerus
    lhumerus lradius
    lradius lwrist
    lwrist lhand lthumb
    lhand lfingers
    rclavicle rhumerus
    rhumerus rradius
    rradius rwrist
    rwrist rhand rthumb
    rhand rfingers
  end

#!OML:ASF F:\VICON\USERDATA\INSTALL\rory3\rory3.ASF
:FULLY-SPECIFIED
:DEGREES
1
root -0.0509533 18.0012 -0.688964 3.91565 -14.0166 1.03355
lowerback 1.17503 -1.64115 -3.16239
upperback 0.0501395 -2.22123 2.02258
thorax -0.406439 -1.10566 3.88383
lowerneck -14.9358 -9.4979 -14.8411
upperneck 19.0785 -11.4438 8.20085
head 9.87364 -5.58983 3.68547
rclavicle -1.75924e-014 2.18663e-014
rhumerus -40.048 -11.3983 -73.2963
rradius 38.1334
rwrist 16.6932
rhand -18.2993 5.14791
rfingers 7.12502
rthumb 7.98151 -24.6814
lclavicle -1.75924e-014 2.18663e-014
lhumerus -44.4342 27.7073 66.0554
lradius 22.3438
lwrist -2.24267
lhand -21.7031 18.0766
lfingers 7.12502
lthumb 4.69545 48.0045
rfemur -9.8693 9.08541 14.4942
rtibia 24.4672
rfoot -14.9048 -0.043512
rtoes 6.22395
lfemur 0.657159 -1.86411 -22.0239
ltibia 10.5336
lfoot -10.4032 9.63259
ltoes -12.3309
2
root -0.0501309 18.0025 -0.697048 3.91123 -13.9624 1.05176
lowerback 1.27331 -1.64835 -3.1918
upperback 0.0250543 -2.23377 2.01713
thorax -0.485255 -1.10982 3.89876
lowerneck -14.9437 -9.49083 -14.8686
upperneck 19.164 -11.4299 8.19169
head 9.90496 -5.58686 3.68863
rclavicle 3.65267e-014 0
rhumerus -40.006 -11.031 -73.6044
rradius 38.402
rwrist 16.189
rhand -18.6021 4.93303
rfingers 7.12502
rthumb 7.68923 -24.9072
lclavicle 3.65267e-014 0
lhumerus -44.4713 27.8823 66.0624
lradius 22.4458
lwrist -2.25309
lhand -21.7064 18.1558
lfingers 7.12502
lthumb 4.69231 48.0839
rfemur -9.9 9.11132 14.4845
rtibia 24.4712
rfoot -14.8815 -0.114804
rtoes 6.31451
lfemur 0.657986 -1.94172 -22.0317
ltibia 10.4604
lfoot -10.361 9.65242
ltoes -12.1801
3
root -0.0510239 18.003 -0.703849 3.89215 -13.9353 1.09705
lowerback 1.35021 -1.64437 -3.24305
upperback 0.00599866 -2.2314 1.98015
thorax -0.547686 -1.10684 3.89242
lowerneck -14.9425 -9.4858 -14.8398
upperneck 19.2528 -11.4293 8.16014
head 9.93223 -5.58865 3.67334
rclavicle -1.963e-014 1.19271e-015
rhumerus -39.9682 -10.9868 -73.7257
rradius 38.5744
rwrist 16.4829
rhand -18.3083 5.2607
rfingers 7.12502
rthumb 7.9728 -24.5689
lclavicle -1.963e-014 1.19271e-015
lhumerus -44.4879 27.9359 66.1009
lradius 22.6005
lwrist -2.05772
lhand -21.6357 18.0076
lfingers 7.12502
lthumb 4.76056 47.9341
rfemur -9.92652 9.16709 14.4503
rtibia 24.4916
rfoot -14.8844 -0.227566
rtoes 6.01408
lfemur 0.658684 -1.97466 -22.065
ltibia 10.4319
lfoot -10.3466 9.64355
ltoes -11.9017
4
root -0.0519373 18.0036 -0.712147 3.9159 -13.8665 1.1145
lowerback 1.38731 -1.66423 -3.27719
upperback -0.00545035 -2.2595 1.9685
thorax -0.576837 -1.12001 3.90145
lowerneck -14.9455 -9.46974 -14.8962
upperneck 19.316 -11.4078 8.20591
head 9.95924 -5.57863 3.70192
rclavicle -1.30204e-014 1.03368e-014
rhumerus -39.8518 -11.0927 -73.7528
rradius 38.7128
rwrist 17.123
rhand -17.927 5.60847
rfingers 7.12502
rthumb 8.34077 -24.2069
lclavicle -1.30204e-014 1.03368e-014
lhumerus -44.4434 27.9357 66.265
lradius 22.8431
lwrist -1.71123
lhand -21.4344 17.9605
lfingers 7.12502
lthumb 4.95487 47.8825
rfemur -9.97371 9.17355 14.4391
rtibia 24.5142
rfoot -14.8816 -0.271398
rtoes 6.34245
lfemur 0.605973 -1.90222 -22.0485
ltibia 10.3792
lfoot -10.2752 9.49687
ltoes -11.6764
5
root -0.0518991 18.0048 -0.719064 3.94293 -13.7673 1.11522
lowerback 1.39399 -1.68329 -3.26079
upperback 0.00153461 -2.28497 1.93763
thorax -0.572965 -1.13298 3.86065
lowerneck -14.9043 -9.45817 -14.9065
upperneck 19.2709 -11.4085 8.27437
head 9.94071 -5.57359 3.7292
rclavicle 1.75924e-014 -1.98785e-015
rhumerus -39.7657 -11.0508 -73.915
rradius 38.9424
rwrist 17.2859
rhand -17.8506 5.67795
rfingers 7.12502
rthumb 8.41456 -24.1344
lclavicle 1.75924e-014 -1.98785e-015
lhumerus -44.309 27.9625 66.4161
lradius 23.0179
lwrist -1.61571
lhand -21.2049 18.2811
lfingers 7.12502
lthumb 5.17651 48.1979
rfemur -10.0012 9.18178 14.4419
rtibia 24.5248
rfoot -14.9082 -0.349554
rtoes 6.58703
lfemur 0.53732 -1.86911 -22.0239
ltibia 10.3748
lfoot -10.2345 9.35891
ltoes -11.5235
6
root -0.0508432 18.006 -0.724105 3.94105 -13.7214 1.19347
lowerback 1.37889 -1.67443 -3.30088
upperback 0.0350349 -2.27354 1.87769
thorax -0.532005 -1.12853 3.8199
lowerneck -14.9204 -9.489 -14.8646
upperneck 19.2128 -11.4527 8.26495
head 9.92522 -5.59076 3.7113
rclavicle -8.05078e-015 1.31198e-014
rhumerus -39.6949 -10.8429 -74.1998
rradius 39.2683
rwrist 16.8938
rhand -17.9979 5.36774
rfingers 7.12502
rthumb 8.27232 -24.4503
lclavicle -8.05078e-015 1.31198e-014
lhumerus -44.1392 28.0472 66.545
lradius 23.0991
lwrist -1.62275
lhand -21.1458 18.6433
lfingers 7.12502
lthumb 5.23357 48.5587
rfemur -10.0248 9.17236 14.3531
rtibia 24.5213
rfoot -14.9234 -0.425289
rtoes 6.19607
lfemur 0.469258 -1.73825 -22.0901
ltibia 10.4163
lfoot -10.276 9.16916
ltoes -11.7142
7
root -0.0491686 18.0068 -0.730641 3.95562 -13.6732 1.12737
lowerback 1.42278 -1.66678 -3.21462
upperback 0.0575726 -2.26304 1.88504
thorax -0.53744 -1.12373 3.7798
lowerneck -14.9863 -9.51819 -14.8821
upperneck 19.2383 -11.4769 8.25062
head 9.94984 -5.60268 3.70248
rclavicle -3.28492e-014 -3.97569e-015
rhumerus -39.6353 -10.5881 -74.4616
rradius 39.5908
rwrist 16.3291
rhand -18.2034 5.13371
rfingers 7.12502
rthumb 8.07406 -24.6921
lclavicle -3.28492e-014 -3.97569e-015
lhumerus -43.9808 28.0104 66.7748
lradius 23.1221
lwrist -1.43529
lhand -21.3887 18.5915
lfingers 7.12502
lthumb 4.99907 48.5125
rfemur -10.0276 9.20714 14.427
rtibia 24.5077
rfoot -14.9389 -0.519252
rtoes 6.07421
lfemur 0.429449 -1.59766 -21.9984
ltibia 10.423
lfoot -10.272 8.9668
ltoes -11.9292
8
root -0.0468853 18.0077 -0.735004 3.96088 -13.6518 1.09916
lowerback 1.42737 -1.65 -3.16159
upperback 0.0587561 -2.23991 1.8818
thorax -0.543019 -1.11217 3.74642
lowerneck -15.0014 -9.5129 -14.9044
upperneck 19.3346 -11.4633 8.22872
head 9.98525 -5.60062 3.70005
rclavicle 2.49972e-014 -2.78299e-015
rhumerus -39.6032 -10.4532 -74.6306
rradius 39.8259
rwrist 16.106
rhand -18.4006 5.21243
rfingers 7.12502
rthumb 7.88368 -24.6206
lclavicle 2.49972e-014 -2.78299e-015
lhumerus -43.8552 27.9035 66.998
lradius 23.1249
lwrist -1.13116
lhand -21.4244 18.0725
lfingers 7.12502
lthumb 4.96458 47.9943
rfemur -10.0414 9.19298 14.4557
rtibia 24.5079
rfoot -14.9201 -0.539146
rtoes 5.94276
lfemur 0.438581 -1.60166 -21.9709
ltibia 10.3682
lfoot -10.2146 8.93078
ltoes -11.9778
9
root -0.0449601 18.0074 -0.736286 3.9355 -13.6468 1.14681
lowerback 1.40527 -1.61551 -3.17721
upperback 0.0624653 -2.1937 1.84665
thorax -0.531695 -1.08926 3.71752
lowerneck -14.9639 -9.53439 -14.8652
upperneck 19.3614 -11.4911 8.14536
head 9.98349 -5.62042 3.66109
rclavicle 2.93207e-015 -5.56597e-015
rhumerus -39.6136 -10.4276 -74.7322
rradius 40.0665
rwrist 16.2376
rhand -18.3879 5.33214
rfingers 7.12502
rthumb 7.89595 -24.5004
lclavicle 2.93207e-015 -5.56597e-015
lhumerus -43.7245 27.7724 67.231
lradius 23.1854
lwrist -0.852511
lhand -21.5096 17.7074
lfingers 7.12502
lthumb 4.88234 47.6311
rfemur -10.0374 9.18452 14.3987
rtibia 24.514
rfoot -14.9061 -0.51351
rtoes 6.08164
lfemur 0.485116 -1.61924 -22.0317
ltibia 10.2983
lfoot -10.1727 8.9573
ltoes -11.9084
10
root -0.0430182 18.0087 -0.738372 3.93775 -13.6442 1.2192
lowerback 1.38331 -1.58773 -3.22993
upperback 0.0549461 -2.15709 1.80017
thorax -0.530174 -1.07068 3.69821
lowerneck -15.0497 -9.5546 -14.7985
upperneck 19.5029 -11.5204 8.09244
head 10.0455 -5.63317 3.62424
rclavicle 2.48481e-015 2.78299e-015
rhumerus -39.5715 -10.4096 -74.8374
rradius 40.2486
rwrist 16.3112
rhand -18.2169 5.24432
rfingers 7.12502
rthumb 8.06104 -24.5819
lclavicle 2.48481e-015 2.78299e-015
lhumerus -43.6209 27.6601 67.4456
lradius 23.3523
lwrist -0.631107
lhand -21.7919 17.8881
lfingers 7.12502
lthumb 4.60975 47.8179
rfemur -10.068 9.16656 14.3026
rtibia 24.5315
rfoot -14.9105 -0.452023
rtoes 6.76053
lfemur 0.49423 -1.60442 -22.1177
ltibia 10.1765
lfoot -10.1172 8.94551
ltoes -11.7135
11
root -0.0404968 18.0092 -0.743488 4.02107 -13.6227 1.27018
lowerback 1.28841 -1.57778 -3.25039
upperback 0.0687748 -2.14163 1.76197
thorax -0.46485 -1.06443 3.66671
lowerneck -15.2606 -9.53166 -14.6893
upperneck 19.6484 -11.4613 7.96481
head 10.1133 -5.60609 3.56442
rclavicle 3.8117e-014 -8.34896e-015
rhumerus -39.439 -10.327 -74.978
rradius 40.3539
rwrist 16.0969
rhand -18.2655 5.37809
rfingers 7.12502
rthumb 8.01412 -24.45
lclavicle 3.8117e-014 -8.34896e-015
lhumerus -43.42 27.5645 67.7093
lradius 23.4805
lwrist -0.488061
lhand -21.867 18.257
lfingers 7.12502
lthumb 4.53717 48.1884
rfemur -10.1938 9.13357 14.2169
rtibia 24.5575
rfoot -14.8816 -0.414351
rtoes 7.11148
lfemur 0.4085 -1.69131 -22.1773
ltibia 10.0401
lfoot -10.0066 9.02135
ltoes -11.624
12
root -0.0384293 18.0103 -0.747884 4.06635 -13.5918 1.24197
lowerback 1.22313 -1.5746 -3.22423
upperback 0.110766 -2.13506 1.76641
thorax -0.386492 -1.06347 3.65354
lowerneck -15.449 -9.45254 -14.4645
upperneck 19.6722 -11.3109 7.68986
head 10.1053 -5.54383 3.45029
rclavicle -2.5842e-015 -1.74931e-014
rhumerus -39.2671 -10.2261 -75.1027
rradius 40.4126
rwrist 15.9885
rhand -18.4355 5.65307
rfingers 7.12502
rthumb 7.84998 -24.1812
lclavicle -2.5842e-015 -1.74931e-014
lhumerus -43.2662 27.5321 67.9671
lradius 23.6597
lwrist -0.605708
lhand -21.6303 18.6405
lfingers 7.12502
lthumb 4.76579 48.5669
rfemur -10.2622 9.08892 14.2395
rtibia 24.5563
rfoot -14.881 -0.469596
rtoes 6.6323
lfemur 0.353063 -1.6667 -22.1398
ltibia 9.995
lfoot -9.92933 8.97728
ltoes -11.6112
13
root -0.0367662 18.0109 -0.751877 4.0424 -13.6251 1.2719
lowerback 1.22902 -1.55954 -3.2643
upperback 0.127034 -2.11563 1.76218
thorax -0.373489 -1.05422 3.67144
lowerneck -15.5734 -9.36511 -14.3034
upperneck 19.7433 -11.1572 7.45637
head 10.1098 -5.48298 3.36366
rclavicle 1.70458e-014 -6.75868e-015
rhumerus -39.1238 -10.1216 -75.202
rradius 40.4593
rwrist 16.0862
rhand -18.4918 5.8504
rfingers 7.12502
rthumb 7.79569 -23.9859
lclavicle 1.70458e-014 -6.75868e-015
lhumerus -43.1624 27.3873 68.2739
lradius 23.92
lwrist -0.439129
lhand -21.5236 18.9181
lfingers 7.12502
lthumb 4.86882 48.8421
rfemur -10.2713 9.08697 14.2036
rtibia 24.5321
rfoot -14.8896 -0.507215
rtoes 6.29156
lfemur 0.334198 -1.57994 -22.1714
ltibia 10.0412
lfoot -9.95668 8.91173
ltoes -11.4977
14
root -0.0350552 18.013 -0.757208 4.04525 -13.6147 1.24917
lowerback 1.2149 -1.54762 -3.21622
upperback 0.139679 -2.09871 1.74027
thorax -0.356627 -1.04632 3.62087
lowerneck -15.5572 -9.32743 -14.2442
upperneck 19.7865 -11.1065 7.38208
head 10.1077 -5.4641 3.33721
rclavicle 2.30093e-014 -2.3059e-014
rhumerus -39.0324 -10.0749 -75.307
rradius 40.5484
rwrist 16.1797
rhand -18.4726 6.1967
rfingers 7.12502
rthumb 7.81424 -23.6389
lclavicle 2.30093e-014 -2.3059e-014
lhumerus -43.0306 27.2184 68.5102
lradius 24.1032
lwrist -0.168851
lhand -21.4994 18.9911
lfingers 7.12502
lthumb 4.89214 48.9146
rfemur -10.2633 9.06839 14.2255
rtibia 24.4755
rfoot -14.8388 -0.492581
rtoes 6.52659
lfemur 0.266301 -1.53293 -22.1446
ltibia 10.1557
lfoot -10.0171 8.8459
ltoes -11.5775
